<?xml version="1.0" encoding="utf-8"?>
<!-- Generator: Adobe Illustrator 22.0.0, SVG Export Plug-In . SVG Version: 6.00 Build 0)  -->
<svg version="1.1" id="iconmonstr" xmlns="http://www.w3.org/2000/svg" xmlns:xlink="http://www.w3.org/1999/xlink" x="0px" y="0px"
	 viewBox="0 0 24 24" style="enable-background:new 0 0 24 24;" xml:space="preserve">
<path id="magnifier-6" d="M21.172,24l-7.387-7.387C12.397,17.486,10.761,18,9,18c-4.971,0-9-4.029-9-9s4.029-9,9-9
	c4.971,0,9,4.029,9,9c0,1.761-0.514,3.398-1.387,4.785L24,21.172L21.172,24z M9,16c3.859,0,7-3.14,7-7s-3.141-7-7-7
	C5.141,2,2,5.14,2,9S5.141,16,9,16z"/>
</svg>
