<?xml version="1.0" encoding="utf-8"?>
<!-- Generator: Adobe Illustrator 22.0.0, SVG Export Plug-In . SVG Version: 6.00 Build 0)  -->
<svg version="1.1" id="Isolation_Mode" xmlns="http://www.w3.org/2000/svg" xmlns:xlink="http://www.w3.org/1999/xlink" x="0px"
	 y="0px" viewBox="0 0 65.893 61.255" style="enable-background:new 0 0 65.893 61.255;" xml:space="preserve">
<style type="text/css">
	.st0{fill:#414042;}
	.st1{fill:#C6464B;}
</style>
<path class="st0" d="M29.26,0C13.629,0,0.822,12.32,0.038,27.76H0v3h0.038C0.822,46.2,13.629,58.52,29.26,58.52
	c2.62,0,5.159-0.354,7.577-1.003v-6.375c-1.795,2.251-3.867,3.744-6.077,4.214V43.642c2.315,0.05,4.512,0.221,6.593,0.493
	c0.366-1.037,0.911-1.988,1.608-2.812c-2.562-0.396-5.309-0.621-8.201-0.681V30.76h11.444c-0.003-1.005,0.153-2.018,0.49-3H30.76
	v-9.881c3.909-0.076,7.49-0.431,10.689-1.095c0.895,3.038,1.459,6.432,1.646,10c0.105-0.22,0.213-0.438,0.337-0.653
	c0.62-1.073,1.442-1.993,2.401-2.724c-0.296-2.598-0.764-5.077-1.419-7.363c2.194-0.631,4.181-1.424,5.963-2.372
	c1.845,2.492,3.259,5.321,4.133,8.375c0.538,0.189,1.065,0.41,1.562,0.698c0.766,0.443,1.439,0.984,2.025,1.591
	C55.748,10.539,43.715,0,29.26,0z M19.93,4.719c-1.956,2.2-3.62,5.084-4.887,8.473c-1.802-0.513-3.439-1.145-4.92-1.886
	C12.828,8.424,16.172,6.152,19.93,4.719z M8.143,13.672c1.776,0.95,3.77,1.738,5.964,2.37c-1.013,3.535-1.63,7.494-1.747,11.718
	H3.046C3.343,22.504,5.193,17.658,8.143,13.672z M3.046,30.76h9.313c0.118,4.235,0.737,8.203,1.755,11.745
	c-2.199,0.628-4.19,1.417-5.969,2.346C5.193,40.864,3.343,36.016,3.046,30.76z M10.123,47.214c1.486-0.725,3.126-1.352,4.93-1.861
	c1.266,3.379,2.926,6.254,4.878,8.448C16.172,52.368,12.828,50.096,10.123,47.214z M27.76,55.357
	c-3.93-0.837-7.426-4.909-9.7-10.726c2.934-0.587,6.194-0.913,9.7-0.988V55.357z M27.76,40.643
	c-3.853,0.08-7.446,0.447-10.679,1.123c-0.982-3.324-1.592-7.065-1.717-11.007H27.76V40.643z M27.76,27.76H15.364
	c0.124-3.93,0.731-7.661,1.708-10.978c3.196,0.664,6.776,1.021,10.688,1.097V27.76z M27.76,14.88
	c-3.559-0.071-6.813-0.382-9.713-0.957c2.274-5.835,5.775-9.921,9.713-10.759V14.88z M30.76,14.879V3.163
	c3.937,0.838,7.438,4.922,9.712,10.755C37.568,14.495,34.317,14.808,30.76,14.879z M43.477,13.193
	c-1.267-3.39-2.931-6.275-4.887-8.475c3.758,1.434,7.104,3.706,9.809,6.589C46.914,12.048,45.279,12.681,43.477,13.193z
	 M57.083,38.137c0.018,0,0.034,0.003,0.052,0.003c0.015-0.048,0.032-0.095,0.047-0.143c-0.057,0.045-0.11,0.096-0.168,0.14H57.083z
	 M42.899,34.271c-0.172,1.602-0.418,3.159-0.741,4.65c0.995-0.445,2.085-0.709,3.231-0.763c0.022-0.123,0.047-0.245,0.068-0.369
	C44.314,36.817,43.448,35.606,42.899,34.271z M57.793,34.422c0,0.001-0.001,0.002-0.002,0.003
	C57.792,34.423,57.792,34.423,57.793,34.422c0.16-0.277,0.289-0.563,0.409-0.851c0,0,0,0,0,0
	C58.082,33.858,57.953,34.144,57.793,34.422z"/>
<g>
	<g>
		<path class="st1" d="M48.118,37.315c3.41,1.969,7.77,0.8,9.739-2.61c1.969-3.41,0.8-7.77-2.61-9.739
			c-3.41-1.969-7.77-0.8-9.739,2.61C43.54,30.986,44.708,35.346,48.118,37.315z M57.167,40.19H46.199
			c-3.771,0-6.855,3.085-6.855,6.855v12.34h24.679v-12.34C64.022,43.275,60.938,40.19,57.167,40.19z"/>
	</g>
</g>
</svg>
