<?xml version="1.0" encoding="utf-8"?>
<!-- Generator: Adobe Illustrator 22.0.0, SVG Export Plug-In . SVG Version: 6.00 Build 0)  -->
<svg version="1.1" id="Isolation_Mode" xmlns="http://www.w3.org/2000/svg" xmlns:xlink="http://www.w3.org/1999/xlink" x="0px"
	 y="0px" viewBox="0 0 79.716 68.519" style="enable-background:new 0 0 79.716 68.519;" xml:space="preserve">
<style type="text/css">
	.st0{fill:#414042;}
	.st1{fill:#C6464B;}
</style>
<path class="st0" d="M64.266,29.794c-0.863,0.892-1.66,1.7-2.391,2.423c0.496,1.779,0.814,3.632,0.923,5.541h-9.313
	c-0.008-0.272-0.035-0.532-0.046-0.802c-1.404-0.345-2.472-1.233-3.129-1.938c0.081,0.901,0.142,1.813,0.171,2.739H38.083v-9.881
	c3.909-0.076,7.49-0.431,10.689-1.095c0.364,1.235,0.657,2.544,0.912,3.883l2.382-3.309c-0.11-0.438-0.207-0.888-0.329-1.314
	c0.564-0.162,1.113-0.336,1.649-0.519l4.334-6.02l-2.855-2.358l-2.556,1.108c1.224,0.919,2.368,1.939,3.413,3.054
	c-1.485,0.74-3.12,1.374-4.922,1.886c-0.547-1.462-1.171-2.823-1.857-4.083c-0.647-0.135-1.248-0.48-1.693-1.015l-1.959-2.355
	c-0.57-0.685-0.806-1.588-0.644-2.465c0.133-0.72,0.534-1.35,1.1-1.797c-2.885-0.954-5.964-1.479-9.166-1.479
	c-15.631,0-28.438,12.32-29.222,27.76H7.323v3h0.038c0.783,15.44,13.591,27.76,29.222,27.76c15.631,0,28.439-12.32,29.222-27.76
	h0.038v-3h-0.038C65.664,34.984,65.13,32.314,64.266,29.794z M38.083,13.162c3.937,0.838,7.438,4.922,9.712,10.755
	c-2.903,0.576-6.155,0.889-9.712,0.961V13.162z M27.253,14.717c-1.956,2.2-3.62,5.084-4.887,8.473
	c-1.802-0.513-3.439-1.145-4.92-1.886C20.151,18.423,23.496,16.151,27.253,14.717z M15.466,23.671c1.776,0.95,3.77,1.738,5.964,2.37
	c-1.013,3.535-1.63,7.494-1.747,11.718h-9.313C10.667,32.503,12.516,27.657,15.466,23.671z M10.369,40.759h9.313
	c0.118,4.235,0.737,8.203,1.755,11.745c-2.199,0.628-4.19,1.417-5.969,2.346C12.517,50.863,10.667,46.015,10.369,40.759z
	 M17.446,57.213c1.486-0.725,3.126-1.352,4.93-1.861c1.266,3.379,2.926,6.254,4.878,8.448
	C23.496,62.367,20.151,60.095,17.446,57.213z M35.083,65.355c-3.93-0.837-7.426-4.909-9.7-10.726c2.934-0.587,6.194-0.913,9.7-0.988
	V65.355z M35.083,50.642c-3.853,0.08-7.446,0.447-10.679,1.123c-0.982-3.324-1.592-7.065-1.717-11.007h12.396V50.642z
	 M35.083,37.759H22.687c0.124-3.93,0.731-7.661,1.708-10.978c3.196,0.664,6.776,1.021,10.688,1.097V37.759z M35.083,24.879
	c-3.559-0.071-6.813-0.382-9.713-0.957c2.274-5.835,5.775-9.921,9.713-10.759V24.879z M38.083,40.759H50.48
	c-0.125,3.944-0.735,7.687-1.719,11.013c-3.238-0.679-6.83-1.049-10.678-1.13V40.759z M38.083,65.356V53.641
	c3.5,0.076,6.761,0.402,9.699,0.991C45.508,60.448,42.013,64.519,38.083,65.356z M45.913,63.8c1.95-2.193,3.609-5.065,4.875-8.44
	c1.8,0.509,3.441,1.134,4.929,1.857C53.012,60.097,49.669,62.367,45.913,63.8z M57.698,54.851c-1.782-0.927-3.777-1.711-5.971-2.339
	c1.019-3.544,1.639-7.515,1.758-11.754h9.313C62.5,46.016,60.65,50.864,57.698,54.851z"/>
<path class="st1" d="M78.237,22.82c-0.817-0.598-6.979-5.111-6.979-5.111s5.841-13.026,5.591-14.924C76.605,0.893,74.673,0,74.673,0
	l-9.157,13.932l-7.829-4.229l0.404-5.339l-2.298-2.42c0,0-1.245,6.026-2.405,7.414c-1.151,1.384-5.457,3.796-5.457,3.796
	l1.959,2.355l5.802-2.514l6.436,5.316l-9.709,13.487c0,0,1.534,2.255,3.297,1.48c1.762-0.774,10.908-10.667,10.908-10.667
	s7.624,5.159,8.455,5.425c0.835,0.271,2.84,1.562,4.126-0.892C80.483,24.688,79.058,23.42,78.237,22.82z"/>
<path class="st0" d="M7.621,54.329C4.69,49.49,3,43.818,3,37.759C3,20.068,17.393,5.676,35.083,5.676
	c5.066,0,9.859,1.185,14.124,3.285l1.477-2.625c-4.7-2.338-9.995-3.66-15.601-3.66C15.707,2.676,0,18.383,0,37.759
	c0,6.665,1.859,12.896,5.086,18.203L7.621,54.329z"/>
</svg>
